<mxfile host="app.diagrams.net" modified="2023-11-23T20:01:39.820Z" agent="Mozilla/5.0 (Windows NT 10.0; Win64; x64) AppleWebKit/537.36 (KHTML, like Gecko) Chrome/119.0.0.0 Safari/537.36" etag="Mnnm0jYqssU4_BuKzOUB" version="22.1.3" type="github">
  <diagram name="Page-1" id="e7e014a7-5840-1c2e-5031-d8a46d1fe8dd">
    <mxGraphModel dx="1870" dy="2179" grid="1" gridSize="10" guides="1" tooltips="1" connect="1" arrows="1" fold="1" page="1" pageScale="1" pageWidth="1169" pageHeight="826" background="none" math="0" shadow="0">
      <root>
        <mxCell id="0" />
        <mxCell id="1" parent="0" />
        <mxCell id="YVi75RIPC11c8uNmv7M9-41" value="Actor" style="shape=umlActor;verticalLabelPosition=bottom;verticalAlign=top;html=1;outlineConnect=0;" vertex="1" parent="1">
          <mxGeometry x="80" y="390" width="90" height="160" as="geometry" />
        </mxCell>
        <mxCell id="YVi75RIPC11c8uNmv7M9-42" value="Actor" style="shape=umlActor;verticalLabelPosition=bottom;verticalAlign=top;html=1;outlineConnect=0;" vertex="1" parent="1">
          <mxGeometry x="170" y="20" width="90" height="160" as="geometry" />
        </mxCell>
        <mxCell id="YVi75RIPC11c8uNmv7M9-43" value="Actor" style="shape=umlActor;verticalLabelPosition=bottom;verticalAlign=top;html=1;outlineConnect=0;" vertex="1" parent="1">
          <mxGeometry x="1350" y="340" width="90" height="160" as="geometry" />
        </mxCell>
        <mxCell id="YVi75RIPC11c8uNmv7M9-47" value="Calculate Overtime" style="rounded=1;whiteSpace=wrap;html=1;" vertex="1" parent="1">
          <mxGeometry x="880" y="50" width="120" height="60" as="geometry" />
        </mxCell>
        <mxCell id="YVi75RIPC11c8uNmv7M9-48" value="Calculate Salary" style="rounded=1;whiteSpace=wrap;html=1;" vertex="1" parent="1">
          <mxGeometry x="880" y="160" width="120" height="60" as="geometry" />
        </mxCell>
        <mxCell id="YVi75RIPC11c8uNmv7M9-49" value="Generate Reports" style="rounded=1;whiteSpace=wrap;html=1;" vertex="1" parent="1">
          <mxGeometry x="680" y="50" width="120" height="60" as="geometry" />
        </mxCell>
        <mxCell id="YVi75RIPC11c8uNmv7M9-50" value="Deduct Taxes and Deductions" style="rounded=1;whiteSpace=wrap;html=1;" vertex="1" parent="1">
          <mxGeometry x="880" y="270" width="120" height="60" as="geometry" />
        </mxCell>
        <mxCell id="YVi75RIPC11c8uNmv7M9-51" value="Approve/Deny Leave" style="rounded=1;whiteSpace=wrap;html=1;" vertex="1" parent="1">
          <mxGeometry x="480" y="490" width="120" height="60" as="geometry" />
        </mxCell>
        <mxCell id="YVi75RIPC11c8uNmv7M9-52" value="Set Goals" style="rounded=1;whiteSpace=wrap;html=1;" vertex="1" parent="1">
          <mxGeometry x="680" y="600" width="120" height="60" as="geometry" />
        </mxCell>
        <mxCell id="YVi75RIPC11c8uNmv7M9-53" value="Generate Reports on Attendance, Leave, Performance, etc." style="rounded=1;whiteSpace=wrap;html=1;" vertex="1" parent="1">
          <mxGeometry x="880" y="600" width="120" height="60" as="geometry" />
        </mxCell>
        <mxCell id="YVi75RIPC11c8uNmv7M9-54" value="Request Leave" style="rounded=1;whiteSpace=wrap;html=1;" vertex="1" parent="1">
          <mxGeometry x="880" y="490" width="120" height="60" as="geometry" />
        </mxCell>
        <mxCell id="YVi75RIPC11c8uNmv7M9-56" value="Announcements, Messaging, Document Sharing" style="rounded=1;whiteSpace=wrap;html=1;" vertex="1" parent="1">
          <mxGeometry x="680" y="490" width="120" height="60" as="geometry" />
        </mxCell>
        <mxCell id="YVi75RIPC11c8uNmv7M9-57" value="Track Progress" style="rounded=1;whiteSpace=wrap;html=1;" vertex="1" parent="1">
          <mxGeometry x="480" y="600" width="120" height="60" as="geometry" />
        </mxCell>
        <mxCell id="YVi75RIPC11c8uNmv7M9-58" value="Internal Communication" style="rounded=1;whiteSpace=wrap;html=1;" vertex="1" parent="1">
          <mxGeometry x="680" y="380" width="120" height="60" as="geometry" />
        </mxCell>
        <mxCell id="YVi75RIPC11c8uNmv7M9-59" value="Record Work Hours" style="rounded=1;whiteSpace=wrap;html=1;" vertex="1" parent="1">
          <mxGeometry x="880" y="380" width="120" height="60" as="geometry" />
        </mxCell>
        <mxCell id="YVi75RIPC11c8uNmv7M9-60" value="Track Attendance" style="rounded=1;whiteSpace=wrap;html=1;" vertex="1" parent="1">
          <mxGeometry x="480" y="380" width="120" height="60" as="geometry" />
        </mxCell>
        <mxCell id="YVi75RIPC11c8uNmv7M9-61" value="Generate Time Tracking Reports" style="rounded=1;whiteSpace=wrap;html=1;" vertex="1" parent="1">
          <mxGeometry x="680" y="270" width="120" height="60" as="geometry" />
        </mxCell>
        <mxCell id="YVi75RIPC11c8uNmv7M9-62" value="Manage Employees" style="rounded=1;whiteSpace=wrap;html=1;" vertex="1" parent="1">
          <mxGeometry x="480" y="280" width="120" height="60" as="geometry" />
        </mxCell>
        <mxCell id="YVi75RIPC11c8uNmv7M9-63" value="Manage System" style="rounded=1;whiteSpace=wrap;html=1;" vertex="1" parent="1">
          <mxGeometry x="480" y="160" width="120" height="60" as="geometry" />
        </mxCell>
        <mxCell id="YVi75RIPC11c8uNmv7M9-64" value="Generate Payslips" style="rounded=1;whiteSpace=wrap;html=1;" vertex="1" parent="1">
          <mxGeometry x="680" y="160" width="120" height="60" as="geometry" />
        </mxCell>
        <mxCell id="YVi75RIPC11c8uNmv7M9-65" value="Log in" style="rounded=1;whiteSpace=wrap;html=1;" vertex="1" parent="1">
          <mxGeometry x="690" y="-80" width="120" height="60" as="geometry" />
        </mxCell>
        <mxCell id="YVi75RIPC11c8uNmv7M9-66" value="Manage Users" style="rounded=1;whiteSpace=wrap;html=1;" vertex="1" parent="1">
          <mxGeometry x="480" y="50" width="120" height="60" as="geometry" />
        </mxCell>
        <mxCell id="YVi75RIPC11c8uNmv7M9-70" value="" style="endArrow=none;html=1;rounded=0;entryX=0;entryY=0.5;entryDx=0;entryDy=0;" edge="1" parent="1" source="YVi75RIPC11c8uNmv7M9-42" target="YVi75RIPC11c8uNmv7M9-65">
          <mxGeometry width="50" height="50" relative="1" as="geometry">
            <mxPoint x="380" y="140" as="sourcePoint" />
            <mxPoint x="430" y="90" as="targetPoint" />
            <Array as="points">
              <mxPoint x="450" y="-40" />
            </Array>
          </mxGeometry>
        </mxCell>
        <mxCell id="YVi75RIPC11c8uNmv7M9-71" value="" style="endArrow=none;html=1;rounded=0;entryX=0;entryY=0.25;entryDx=0;entryDy=0;" edge="1" parent="1" source="YVi75RIPC11c8uNmv7M9-41" target="YVi75RIPC11c8uNmv7M9-65">
          <mxGeometry width="50" height="50" relative="1" as="geometry">
            <mxPoint x="390" y="150" as="sourcePoint" />
            <mxPoint x="700" y="-40" as="targetPoint" />
            <Array as="points">
              <mxPoint x="120" y="40" />
              <mxPoint x="120" y="-65" />
            </Array>
          </mxGeometry>
        </mxCell>
        <mxCell id="YVi75RIPC11c8uNmv7M9-72" value="" style="endArrow=none;html=1;rounded=0;entryX=1;entryY=0.5;entryDx=0;entryDy=0;" edge="1" parent="1" source="YVi75RIPC11c8uNmv7M9-43" target="YVi75RIPC11c8uNmv7M9-65">
          <mxGeometry width="50" height="50" relative="1" as="geometry">
            <mxPoint x="999" y="455" as="sourcePoint" />
            <mxPoint x="1350" y="-60" as="targetPoint" />
            <Array as="points">
              <mxPoint x="1400" y="-50" />
            </Array>
          </mxGeometry>
        </mxCell>
        <mxCell id="YVi75RIPC11c8uNmv7M9-73" value="" style="endArrow=none;html=1;rounded=0;entryX=0;entryY=0.5;entryDx=0;entryDy=0;" edge="1" parent="1" source="YVi75RIPC11c8uNmv7M9-42" target="YVi75RIPC11c8uNmv7M9-66">
          <mxGeometry width="50" height="50" relative="1" as="geometry">
            <mxPoint x="270" y="83" as="sourcePoint" />
            <mxPoint x="700" y="-40" as="targetPoint" />
            <Array as="points">
              <mxPoint x="360" y="80" />
            </Array>
          </mxGeometry>
        </mxCell>
        <mxCell id="YVi75RIPC11c8uNmv7M9-74" value="" style="endArrow=none;html=1;rounded=0;entryX=0;entryY=0.5;entryDx=0;entryDy=0;" edge="1" parent="1" source="YVi75RIPC11c8uNmv7M9-42" target="YVi75RIPC11c8uNmv7M9-49">
          <mxGeometry width="50" height="50" relative="1" as="geometry">
            <mxPoint x="270" y="104" as="sourcePoint" />
            <mxPoint x="490" y="90" as="targetPoint" />
            <Array as="points">
              <mxPoint x="600" y="140" />
            </Array>
          </mxGeometry>
        </mxCell>
        <mxCell id="YVi75RIPC11c8uNmv7M9-75" value="" style="endArrow=none;html=1;rounded=0;entryX=0;entryY=0.25;entryDx=0;entryDy=0;" edge="1" parent="1" source="YVi75RIPC11c8uNmv7M9-42" target="YVi75RIPC11c8uNmv7M9-63">
          <mxGeometry width="50" height="50" relative="1" as="geometry">
            <mxPoint x="260" y="124" as="sourcePoint" />
            <mxPoint x="480" y="110" as="targetPoint" />
            <Array as="points">
              <mxPoint x="360" y="175" />
            </Array>
          </mxGeometry>
        </mxCell>
        <mxCell id="YVi75RIPC11c8uNmv7M9-76" value="" style="endArrow=none;html=1;rounded=0;entryX=0;entryY=0.25;entryDx=0;entryDy=0;" edge="1" parent="1" source="YVi75RIPC11c8uNmv7M9-42" target="YVi75RIPC11c8uNmv7M9-62">
          <mxGeometry width="50" height="50" relative="1" as="geometry">
            <mxPoint x="270" y="133" as="sourcePoint" />
            <mxPoint x="490" y="185" as="targetPoint" />
            <Array as="points">
              <mxPoint x="280" y="295" />
            </Array>
          </mxGeometry>
        </mxCell>
        <mxCell id="YVi75RIPC11c8uNmv7M9-77" value="" style="endArrow=none;html=1;rounded=0;entryX=1;entryY=0.5;entryDx=0;entryDy=0;" edge="1" parent="1" source="YVi75RIPC11c8uNmv7M9-41" target="YVi75RIPC11c8uNmv7M9-62">
          <mxGeometry width="50" height="50" relative="1" as="geometry">
            <mxPoint x="160" y="450" as="sourcePoint" />
            <mxPoint x="620" y="460" as="targetPoint" />
            <Array as="points">
              <mxPoint x="210" y="450" />
              <mxPoint x="640" y="450" />
              <mxPoint x="640" y="310" />
            </Array>
          </mxGeometry>
        </mxCell>
        <mxCell id="YVi75RIPC11c8uNmv7M9-78" value="" style="endArrow=none;html=1;rounded=0;exitX=1;exitY=0.5;exitDx=0;exitDy=0;" edge="1" parent="1" source="YVi75RIPC11c8uNmv7M9-59" target="YVi75RIPC11c8uNmv7M9-43">
          <mxGeometry width="50" height="50" relative="1" as="geometry">
            <mxPoint x="960" y="270" as="sourcePoint" />
            <mxPoint x="1010" y="220" as="targetPoint" />
            <Array as="points">
              <mxPoint x="1240" y="410" />
            </Array>
          </mxGeometry>
        </mxCell>
        <mxCell id="YVi75RIPC11c8uNmv7M9-79" value="" style="endArrow=none;html=1;rounded=0;entryX=0;entryY=0.25;entryDx=0;entryDy=0;" edge="1" parent="1" source="YVi75RIPC11c8uNmv7M9-42" target="YVi75RIPC11c8uNmv7M9-60">
          <mxGeometry width="50" height="50" relative="1" as="geometry">
            <mxPoint x="219.9982926829268" y="180" as="sourcePoint" />
            <mxPoint x="465.73" y="305" as="targetPoint" />
            <Array as="points">
              <mxPoint x="215" y="395" />
            </Array>
          </mxGeometry>
        </mxCell>
        <mxCell id="YVi75RIPC11c8uNmv7M9-81" value="" style="endArrow=none;html=1;rounded=0;entryX=0;entryY=0.75;entryDx=0;entryDy=0;" edge="1" parent="1" source="YVi75RIPC11c8uNmv7M9-41" target="YVi75RIPC11c8uNmv7M9-60">
          <mxGeometry width="50" height="50" relative="1" as="geometry">
            <mxPoint x="170" y="454" as="sourcePoint" />
            <mxPoint x="390" y="440" as="targetPoint" />
            <Array as="points">
              <mxPoint x="220" y="425" />
            </Array>
          </mxGeometry>
        </mxCell>
        <mxCell id="YVi75RIPC11c8uNmv7M9-82" value="" style="endArrow=none;html=1;rounded=0;entryX=0;entryY=0.75;entryDx=0;entryDy=0;" edge="1" parent="1" source="YVi75RIPC11c8uNmv7M9-41">
          <mxGeometry width="50" height="50" relative="1" as="geometry">
            <mxPoint x="170" y="544" as="sourcePoint" />
            <mxPoint x="480" y="520" as="targetPoint" />
            <Array as="points">
              <mxPoint x="220" y="520" />
            </Array>
          </mxGeometry>
        </mxCell>
        <mxCell id="YVi75RIPC11c8uNmv7M9-83" value="" style="endArrow=none;html=1;rounded=0;exitX=1;exitY=0.5;exitDx=0;exitDy=0;" edge="1" parent="1" source="YVi75RIPC11c8uNmv7M9-54" target="YVi75RIPC11c8uNmv7M9-43">
          <mxGeometry width="50" height="50" relative="1" as="geometry">
            <mxPoint x="1010" y="420" as="sourcePoint" />
            <mxPoint x="1360" y="427" as="targetPoint" />
            <Array as="points">
              <mxPoint x="1280" y="520" />
            </Array>
          </mxGeometry>
        </mxCell>
        <mxCell id="YVi75RIPC11c8uNmv7M9-84" value="" style="endArrow=none;html=1;rounded=0;entryX=0.006;entryY=0.662;entryDx=0;entryDy=0;entryPerimeter=0;" edge="1" parent="1" source="YVi75RIPC11c8uNmv7M9-41" target="YVi75RIPC11c8uNmv7M9-57">
          <mxGeometry width="50" height="50" relative="1" as="geometry">
            <mxPoint x="180" y="504" as="sourcePoint" />
            <mxPoint x="470" y="640" as="targetPoint" />
            <Array as="points">
              <mxPoint x="200" y="640" />
            </Array>
          </mxGeometry>
        </mxCell>
        <mxCell id="YVi75RIPC11c8uNmv7M9-85" value="" style="endArrow=none;html=1;rounded=0;entryX=0.25;entryY=1;entryDx=0;entryDy=0;" edge="1" parent="1" source="YVi75RIPC11c8uNmv7M9-41" target="YVi75RIPC11c8uNmv7M9-52">
          <mxGeometry width="50" height="50" relative="1" as="geometry">
            <mxPoint x="170" y="560" as="sourcePoint" />
            <mxPoint x="491" y="650" as="targetPoint" />
            <Array as="points">
              <mxPoint x="150" y="680" />
              <mxPoint x="710" y="680" />
            </Array>
          </mxGeometry>
        </mxCell>
        <mxCell id="YVi75RIPC11c8uNmv7M9-86" value="" style="endArrow=none;html=1;rounded=0;entryX=0.647;entryY=1.047;entryDx=0;entryDy=0;entryPerimeter=0;" edge="1" parent="1" source="YVi75RIPC11c8uNmv7M9-41" target="YVi75RIPC11c8uNmv7M9-53">
          <mxGeometry width="50" height="50" relative="1" as="geometry">
            <mxPoint x="105" y="560" as="sourcePoint" />
            <mxPoint x="680" y="670" as="targetPoint" />
            <Array as="points">
              <mxPoint x="120" y="720" />
              <mxPoint x="960" y="720" />
            </Array>
          </mxGeometry>
        </mxCell>
        <mxCell id="YVi75RIPC11c8uNmv7M9-87" value="" style="endArrow=none;html=1;rounded=0;entryX=0.5;entryY=0;entryDx=0;entryDy=0;" edge="1" parent="1" source="YVi75RIPC11c8uNmv7M9-42" target="YVi75RIPC11c8uNmv7M9-61">
          <mxGeometry width="50" height="50" relative="1" as="geometry">
            <mxPoint x="270" y="133" as="sourcePoint" />
            <mxPoint x="490" y="185" as="targetPoint" />
            <Array as="points">
              <mxPoint x="370" y="250" />
              <mxPoint x="740" y="250" />
            </Array>
          </mxGeometry>
        </mxCell>
        <mxCell id="YVi75RIPC11c8uNmv7M9-88" value="" style="endArrow=none;html=1;rounded=0;entryX=0.25;entryY=1;entryDx=0;entryDy=0;" edge="1" parent="1" source="YVi75RIPC11c8uNmv7M9-41" target="YVi75RIPC11c8uNmv7M9-58">
          <mxGeometry width="50" height="50" relative="1" as="geometry">
            <mxPoint x="170" y="480" as="sourcePoint" />
            <mxPoint x="480" y="506" as="targetPoint" />
            <Array as="points">
              <mxPoint x="710" y="470" />
            </Array>
          </mxGeometry>
        </mxCell>
        <mxCell id="YVi75RIPC11c8uNmv7M9-89" value="" style="endArrow=none;html=1;rounded=0;entryX=0.5;entryY=0;entryDx=0;entryDy=0;exitX=1;exitY=1;exitDx=0;exitDy=0;exitPerimeter=0;" edge="1" parent="1" source="YVi75RIPC11c8uNmv7M9-42" target="YVi75RIPC11c8uNmv7M9-58">
          <mxGeometry width="50" height="50" relative="1" as="geometry">
            <mxPoint x="270" y="154" as="sourcePoint" />
            <mxPoint x="750" y="280" as="targetPoint" />
            <Array as="points">
              <mxPoint x="320" y="260" />
              <mxPoint x="670" y="260" />
              <mxPoint x="670" y="350" />
              <mxPoint x="740" y="350" />
            </Array>
          </mxGeometry>
        </mxCell>
        <mxCell id="YVi75RIPC11c8uNmv7M9-90" value="" style="endArrow=none;html=1;rounded=0;exitX=1;exitY=0;exitDx=0;exitDy=0;" edge="1" parent="1" source="YVi75RIPC11c8uNmv7M9-58" target="YVi75RIPC11c8uNmv7M9-43">
          <mxGeometry width="50" height="50" relative="1" as="geometry">
            <mxPoint x="1010" y="420" as="sourcePoint" />
            <mxPoint x="1360" y="427" as="targetPoint" />
            <Array as="points">
              <mxPoint x="820" y="360" />
              <mxPoint x="1240" y="360" />
            </Array>
          </mxGeometry>
        </mxCell>
        <mxCell id="YVi75RIPC11c8uNmv7M9-91" value="" style="endArrow=none;html=1;rounded=0;entryX=1;entryY=0;entryDx=0;entryDy=0;" edge="1" parent="1" source="YVi75RIPC11c8uNmv7M9-42" target="YVi75RIPC11c8uNmv7M9-64">
          <mxGeometry width="50" height="50" relative="1" as="geometry">
            <mxPoint x="270" y="104" as="sourcePoint" />
            <mxPoint x="490" y="90" as="targetPoint" />
            <Array as="points">
              <mxPoint x="520" y="10" />
              <mxPoint x="840" y="10" />
              <mxPoint x="840" y="160" />
            </Array>
          </mxGeometry>
        </mxCell>
        <mxCell id="YVi75RIPC11c8uNmv7M9-92" value="" style="endArrow=none;html=1;rounded=0;exitX=1;exitY=1;exitDx=0;exitDy=0;" edge="1" parent="1" source="YVi75RIPC11c8uNmv7M9-64" target="YVi75RIPC11c8uNmv7M9-43">
          <mxGeometry width="50" height="50" relative="1" as="geometry">
            <mxPoint x="1010" y="420" as="sourcePoint" />
            <mxPoint x="1360" y="427" as="targetPoint" />
            <Array as="points">
              <mxPoint x="840" y="220" />
              <mxPoint x="840" y="340" />
              <mxPoint x="1250" y="340" />
            </Array>
          </mxGeometry>
        </mxCell>
        <mxCell id="YVi75RIPC11c8uNmv7M9-93" value="" style="endArrow=none;html=1;rounded=0;entryX=0.5;entryY=1;entryDx=0;entryDy=0;" edge="1" parent="1" source="YVi75RIPC11c8uNmv7M9-41" target="YVi75RIPC11c8uNmv7M9-56">
          <mxGeometry width="50" height="50" relative="1" as="geometry">
            <mxPoint x="180" y="504" as="sourcePoint" />
            <mxPoint x="490" y="530" as="targetPoint" />
            <Array as="points">
              <mxPoint x="330" y="580" />
              <mxPoint x="740" y="580" />
            </Array>
          </mxGeometry>
        </mxCell>
        <mxCell id="YVi75RIPC11c8uNmv7M9-94" value="" style="endArrow=none;html=1;rounded=0;exitX=0.75;exitY=1;exitDx=0;exitDy=0;" edge="1" parent="1" source="YVi75RIPC11c8uNmv7M9-56" target="YVi75RIPC11c8uNmv7M9-43">
          <mxGeometry width="50" height="50" relative="1" as="geometry">
            <mxPoint x="1010" y="530" as="sourcePoint" />
            <mxPoint x="1360" y="469" as="targetPoint" />
            <Array as="points">
              <mxPoint x="770" y="580" />
              <mxPoint x="1280" y="580" />
            </Array>
          </mxGeometry>
        </mxCell>
        <mxCell id="YVi75RIPC11c8uNmv7M9-95" value="SYSTEM" style="rounded=0;whiteSpace=wrap;html=1;" vertex="1" parent="1">
          <mxGeometry x="1230" y="160" width="120" height="60" as="geometry" />
        </mxCell>
        <mxCell id="YVi75RIPC11c8uNmv7M9-96" value="" style="endArrow=none;html=1;rounded=0;exitX=1;exitY=0.5;exitDx=0;exitDy=0;" edge="1" parent="1" source="YVi75RIPC11c8uNmv7M9-47" target="YVi75RIPC11c8uNmv7M9-95">
          <mxGeometry width="50" height="50" relative="1" as="geometry">
            <mxPoint x="1000" y="370" as="sourcePoint" />
            <mxPoint x="1050" y="320" as="targetPoint" />
            <Array as="points">
              <mxPoint x="1200" y="80" />
            </Array>
          </mxGeometry>
        </mxCell>
        <mxCell id="YVi75RIPC11c8uNmv7M9-97" value="" style="endArrow=none;html=1;rounded=0;exitX=1;exitY=0.5;exitDx=0;exitDy=0;" edge="1" parent="1" source="YVi75RIPC11c8uNmv7M9-48" target="YVi75RIPC11c8uNmv7M9-95">
          <mxGeometry width="50" height="50" relative="1" as="geometry">
            <mxPoint x="1040" y="250" as="sourcePoint" />
            <mxPoint x="1090" y="200" as="targetPoint" />
          </mxGeometry>
        </mxCell>
        <mxCell id="YVi75RIPC11c8uNmv7M9-98" value="" style="endArrow=none;html=1;rounded=0;exitX=1;exitY=0.5;exitDx=0;exitDy=0;" edge="1" parent="1" source="YVi75RIPC11c8uNmv7M9-50" target="YVi75RIPC11c8uNmv7M9-95">
          <mxGeometry width="50" height="50" relative="1" as="geometry">
            <mxPoint x="1010" y="200" as="sourcePoint" />
            <mxPoint x="1240" y="200" as="targetPoint" />
            <Array as="points">
              <mxPoint x="1200" y="300" />
            </Array>
          </mxGeometry>
        </mxCell>
      </root>
    </mxGraphModel>
  </diagram>
</mxfile>
